HIERARCHY
ROOT Hips
{
	OFFSET -3.958830 18.904000 13.208200
	CHANNELS 6 Xposition Yposition Zposition Zrotation Yrotation Xrotation 
	JOINT LHipJoint
	{
		OFFSET 0.000000 0.000000 0.000000
		CHANNELS 3 Zrotation Yrotation Xrotation
		JOINT LeftUpLeg
		{
			OFFSET 1.800000 -1.400000 0.085000
			CHANNELS 3 Zrotation Yrotation Xrotation
			JOINT LeftLeg
			{
				OFFSET 2.215000 -6.000000 0.000000
				CHANNELS 3 Zrotation Yrotation Xrotation
				JOINT LeftFoot
				{
					OFFSET 2.500000 -6.900000 0.000000
					CHANNELS 3 Zrotation Yrotation Xrotation
					JOINT LeftToeBase
					{
						OFFSET 0.200000 -0.500000 1.950000
						CHANNELS 3 Zrotation Yrotation Xrotation
						End Site
						{
							OFFSET 0.000000 0.000000 0.000000
						}
					}
				}
			}
		}
	}
	JOINT RHipJoint
	{
		OFFSET 0.000000 0.000000 0.000000
		CHANNELS 3 Zrotation Yrotation Xrotation
		JOINT RightUpLeg
		{
			OFFSET -1.800000 -1.400000 0.085000
			CHANNELS 3 Zrotation Yrotation Xrotation
			JOINT RightLeg
			{
				OFFSET -2.215000 -6.000000 0.000000
				CHANNELS 3 Zrotation Yrotation Xrotation
				JOINT RightFoot
				{
					OFFSET -2.500000 -6.900000 0.000000
					CHANNELS 3 Zrotation Yrotation Xrotation
					JOINT RightToeBase
					{
						OFFSET -0.200000 -0.500000 1.950000
						CHANNELS 3 Zrotation Yrotation Xrotation
						End Site
						{
							OFFSET 0.000000 0.000000 0.000000
						}
					}
				}
			}
		}
	}
	JOINT LowerBack
	{
		OFFSET 0.000000 0.000000 0.000000
		CHANNELS 3 Zrotation Yrotation Xrotation
		JOINT Spine
		{
			OFFSET -0.087000 1.940000 -0.288900
			CHANNELS 3 Zrotation Yrotation Xrotation
			JOINT Spine1
			{
				OFFSET 0.000000 1.950000 0.060000
				CHANNELS 3 Zrotation Yrotation Xrotation
				JOINT Neck
				{
					OFFSET 0.000000 0.000000 0.000000
					CHANNELS 3 Zrotation Yrotation Xrotation
					JOINT Neck1
					{
						OFFSET 0.000000 1.600000 0.340000
						CHANNELS 3 Zrotation Yrotation Xrotation
						JOINT Head
						{
							OFFSET 0.000000 1.667000 -0.240000
							CHANNELS 3 Zrotation Yrotation Xrotation
							End Site
							{
								OFFSET 0.000000 0.000000 0.000000
							}
						}
					}
				}
				JOINT LeftShoulder
				{
					OFFSET 0.000000 0.000000 0.000000
					CHANNELS 3 Zrotation Yrotation Xrotation
					JOINT LeftArm
					{
						OFFSET 2.700000 1.550000 -0.730000
						CHANNELS 3 Zrotation Yrotation Xrotation
						JOINT LeftForeArm
						{
							OFFSET 5.450000 0.000000 0.000000
							CHANNELS 3 Zrotation Yrotation Xrotation
							JOINT LeftHand
							{
								OFFSET 3.450000 0.000000 0.000000
								CHANNELS 3 Zrotation Yrotation Xrotation
								JOINT LeftHandIndex1
								{
									OFFSET 0.750000 0.000000 0.000000
									CHANNELS 3 Zrotation Yrotation Xrotation
									End Site
									{
										OFFSET 0.000000 0.000000 0.000000
									}
								}
							}
						}
					}
				}
				JOINT RightShoulder
				{
					OFFSET 0.000000 0.000000 0.000000
					CHANNELS 3 Zrotation Yrotation Xrotation
					JOINT RightArm
					{
						OFFSET -2.700000 1.550000 -0.730000
						CHANNELS 3 Zrotation Yrotation Xrotation
						JOINT RightForeArm
						{
							OFFSET -5.450000 0.000000 0.000000
							CHANNELS 3 Zrotation Yrotation Xrotation
							JOINT RightHand
							{
								OFFSET -3.450000 0.000000 0.000000
								CHANNELS 3 Zrotation Yrotation Xrotation
								JOINT RightHandIndex1
								{
									OFFSET -0.750000 0.000000 0.000000
									CHANNELS 3 Zrotation Yrotation Xrotation
									End Site
									{
										OFFSET 0.000000 0.000000 0.000000
									}
								}
							}
						}
					}
				}
			}
		}
	}
}
MOTION
Frames: 10
Frame Time: 0.016667
24.059910 16.154500 -20.923340 -20.201764 -62.878838 11.577702 -16.112102 9.278721 5.446766 16.428981 -6.096756 -52.680446 -17.104391 16.629642 43.266101 0.865701 9.323244 0.716124 1.124240 1.074390 0.746080 18.224770 -5.989355 6.316516 -17.208735 13.580902 -71.597094 1.544604 -1.282724 8.078850 -0.073652 -1.129011 3.200806 0.333810 -0.595550 0.695270 -3.490414 -1.381305 -10.640506 26.414709 -5.729240 35.752462 -13.180879 7.179052 1.250776 16.209541 -2.321597 -19.010027 0.613903 -21.002858 16.167205 -4.312310 -10.522520 -11.984350 -8.587345 -39.962028 12.913927 -22.039375 -45.900206 9.869343 -4.891278 -6.946867 0.705661 -3.744054 4.055517 0.047280 -0.284600 0.382520 0.185510 -20.691934 43.395356 6.057750 -37.166143 -36.298428 -5.965180 -23.588580 25.195080 -0.589911 3.284067 -3.532113 0.700620 -1.053940 -0.630700 0.193510 
24.012410 16.123900 -20.905760 -18.501233 -62.642307 14.016088 -16.231104 8.810237 5.914635 17.088690 -5.988401 -57.236195 -24.211291 14.728876 30.573614 0.698641 7.961399 1.424212 0.904890 0.820630 0.821980 18.169068 -5.676118 6.310207 -22.770781 12.771294 -71.230475 5.479260 -0.395010 2.871740 0.029064 -1.212069 3.379330 0.247610 -0.484700 0.442150 -3.281962 -1.495944 -10.960374 24.449829 -5.047599 33.812719 -14.955199 6.423471 -1.872152 17.326127 0.614012 -21.398864 5.141082 -22.639336 15.230075 -10.204270 -6.899110 -6.453530 -11.815333 -40.129087 15.753596 -23.119295 -43.154830 9.309524 -4.410990 -3.093800 0.606382 -3.776701 3.613269 0.086810 -0.160910 0.260610 0.141570 -19.729544 44.327759 3.360543 -38.448608 -31.903104 -9.725351 -9.381777 38.049241 2.758234 2.215714 -3.900534 0.411820 -0.849990 -0.720250 0.066350 
23.942410 15.939480 -20.921800 -13.499810 -61.428630 13.725900 -16.340031 8.017649 6.219337 17.527619 -7.101463 -62.162147 -28.160642 12.649370 22.782492 0.416530 7.313350 1.768232 0.793740 0.635460 0.825600 18.171276 -5.231050 6.518353 -35.595504 8.395090 -67.774310 16.889702 2.247999 -7.876425 -0.211562 -2.645865 2.904350 0.252080 -0.305890 0.362000 -3.518810 -1.167937 -11.340180 23.651185 -3.167657 28.039083 -14.436302 6.671564 -0.778997 17.344527 -0.630636 -20.580906 4.689151 -22.194556 13.760945 -12.584850 -5.938160 -6.439100 -10.799659 -38.628102 15.124765 -26.696326 -45.040958 10.163509 -4.645877 -8.187613 0.573449 -3.775652 3.393469 0.152050 -0.048680 0.130030 0.091720 -20.697834 43.321195 2.632987 -37.459372 -30.126513 -11.305903 -2.750685 37.714882 3.423433 1.532192 -3.869255 0.203170 -0.597560 -0.571950 -0.052190 
23.896190 15.812930 -20.918450 -11.317724 -60.041496 14.301958 -16.392742 7.472413 6.445828 18.351301 -7.410537 -65.769040 -30.252776 11.264127 18.516935 0.315379 6.969388 1.960406 0.768100 0.632000 0.829980 18.201785 -4.916816 6.691559 -38.925853 7.055495 -66.606780 19.980266 4.047043 -13.533993 -0.334654 -3.225448 2.768382 0.305600 -0.227620 0.249000 -3.780736 -1.034045 -11.549527 24.018740 -4.117680 25.415266 -15.285284 5.719823 -0.425678 17.116872 -0.705983 -20.156397 4.810526 -21.733780 12.860777 -12.283470 -5.415270 -6.890670 -11.366868 -37.379877 14.483722 -28.721664 -44.808070 9.842599 -4.628558 -9.887420 0.535889 -3.690351 3.280127 0.181900 -0.015960 0.082180 0.103110 -19.890441 42.028191 3.054652 -37.646233 -27.912865 -11.150461 -1.415639 34.222831 2.915972 1.436040 -3.508323 0.076680 -0.442300 -0.580800 -0.076560 
23.864670 15.749420 -20.909080 -8.371225 -60.057531 11.019016 -16.476938 7.881299 6.573557 17.128357 -6.588076 -66.590810 -32.678810 11.218809 16.640734 0.406343 6.958345 1.922733 0.792690 0.624430 0.930370 18.128133 -4.784634 6.511535 -35.761729 9.803324 -71.404214 17.885361 0.573013 -0.609114 -0.178797 -2.319817 3.042233 0.235490 -0.388350 0.229720 -3.577826 -1.804963 -11.302491 22.622539 -5.255856 28.829577 -17.266438 5.660933 -2.948003 17.209169 0.155167 -21.360662 4.460815 -21.078352 14.721384 -12.269340 -5.213860 -9.498960 -9.211443 -37.897615 13.154623 -30.157924 -43.330233 8.011567 -5.928367 -11.591423 0.531664 -3.415162 3.332305 0.307330 -0.158590 0.197570 0.056370 -21.940846 42.019238 -0.503442 -33.926228 -23.712202 -16.547125 30.132344 41.591739 11.952882 -2.147432 -4.807162 0.110330 -0.499110 -0.630380 -0.117140 
23.818210 15.760790 -20.834410 -10.574442 -61.448901 8.312394 -16.344805 8.491804 6.313559 16.986671 -5.286265 -61.231963 -30.483091 9.922449 14.492629 0.412451 6.397242 2.033248 0.901820 0.860060 0.829640 18.131100 -5.323122 6.192167 -29.139440 13.082782 -68.369430 18.670540 -1.742894 7.738904 -0.196540 -2.339228 3.007478 0.337950 -0.413560 0.355520 -3.661092 -1.831872 -10.915163 24.904236 -9.167333 32.687797 -19.576186 4.525322 0.376396 18.539790 -0.523417 -21.933840 1.345042 -18.103985 17.645391 -11.241690 -5.483820 -10.073480 -10.791462 -38.580682 13.251681 -24.728867 -40.714592 4.339769 -7.069286 -12.837569 0.619428 -3.450423 3.473673 0.173030 -0.140490 0.290640 0.157900 -23.737722 42.105913 -1.278722 -32.481502 -23.847918 -17.933486 36.733182 45.391860 15.350006 -5.278165 -6.423488 0.297940 -0.573080 -0.671230 0.013550 
23.743810 15.685340 -20.788040 -11.127703 -60.750099 6.047957 -16.300130 8.328651 6.439970 18.906480 -5.365820 -60.299606 -31.698042 9.607726 13.805676 0.352268 6.552157 1.884456 1.219230 1.306990 0.785940 18.195240 -5.503003 6.064584 -23.500866 13.273483 -69.673003 16.967644 -6.926438 23.539171 -0.467741 -3.907766 2.360007 0.654050 -0.352260 0.489830 -3.912874 -1.868596 -10.663291 26.588133 -10.653565 32.182938 -17.000841 3.064438 3.140428 17.111596 -3.756723 -16.580566 -3.210904 -14.775094 15.663798 -6.501160 -8.012700 -13.130510 -11.585980 -37.182006 9.997941 -27.028563 -39.864239 4.990282 -11.562443 -16.278004 1.029569 -3.353114 3.864484 0.032200 -0.103360 0.317530 0.313510 -21.186354 40.843034 -1.408167 -41.684320 -26.450093 -9.877966 41.619901 51.529408 21.308683 -2.266425 -6.042443 0.467000 -0.534220 -0.687800 0.153490 
23.634500 15.635910 -20.747680 -10.630695 -62.730304 3.438405 -16.372990 8.022167 6.849009 23.255686 -3.988764 -59.987939 -39.116869 13.594969 18.762789 0.758070 8.373814 1.051314 1.281980 1.375200 0.711420 18.175383 -5.500331 5.803767 -19.551704 14.747129 -67.977631 16.108735 -9.921510 32.784570 -0.784453 -5.186484 1.754778 0.603980 -0.520730 0.684390 -4.015622 -1.724774 -10.771597 25.103929 -11.755390 35.888140 -16.946930 2.327740 2.353742 15.853622 -4.652426 -15.034811 -5.076510 -13.417110 17.206895 -1.788030 -9.129030 -18.999350 -9.588941 -35.511680 8.130050 -26.303819 -39.535203 4.160635 -12.701275 -19.508017 1.307170 -3.226298 4.226243 0.092780 -0.265950 0.470900 0.244690 -20.751691 39.379212 -1.317722 -41.053172 -23.719114 -11.263461 26.415426 49.960850 14.557704 0.209777 -4.652719 0.694510 -0.723160 -0.540340 0.197600 
23.517150 15.688410 -20.660730 -11.358908 -63.005485 -0.755860 -16.161984 8.804213 6.578325 23.186685 -4.844037 -53.606321 -37.026352 16.402796 26.195443 0.932262 9.126813 0.796553 1.178670 1.240750 0.693490 18.169879 -6.422263 5.282300 -14.385484 14.716779 -59.682472 15.734508 -11.503909 37.122118 -0.957605 -5.822317 1.575637 0.454940 -0.607670 0.667120 -3.989724 -1.338315 -10.437930 24.266240 -15.566338 42.174602 -18.373580 0.367360 1.960054 16.236763 -4.906786 -16.592195 -6.847378 -13.312222 20.842726 -0.828560 -9.041190 -22.414820 -8.095358 -35.104964 7.373919 -19.790118 -38.850404 1.208193 -15.163411 -22.617981 2.252712 -3.124399 4.099798 0.226560 -0.372190 0.562270 0.183410 -22.449549 39.044738 1.878503 -37.476119 -23.243131 -12.685789 -2.677142 36.705347 4.187375 1.551119 -3.450361 0.698060 -0.723940 -0.500320 0.157350 
23.306620 15.770460 -20.584620 -10.062810 -61.001079 -5.730530 -15.942621 9.619056 6.363612 22.384943 -6.346676 -47.186695 -37.474157 19.420155 32.195784 1.500175 9.877176 0.709034 1.038450 1.146000 0.624050 18.186347 -7.242357 4.612088 -10.362973 12.814583 -51.423922 12.216188 -13.375445 45.083420 -1.223307 -7.039468 1.352322 0.248560 -0.673390 0.583870 -3.917226 -1.643412 -10.094126 22.835661 -18.207875 47.460039 -19.275791 -1.632980 -4.135632 15.099265 -3.184276 -18.111506 -7.949323 -11.769764 27.647833 -0.619130 -9.105210 -21.392160 -7.281450 -37.222606 6.124268 -15.448644 -36.454420 0.629175 -24.484593 -22.925925 4.389276 -2.844441 4.015692 0.250930 -0.451680 0.665390 0.230090 -20.702742 41.025652 2.164006 -38.380050 -17.798168 -14.038464 3.978595 37.971663 6.285341 1.542498 -3.248384 0.744870 -0.739890 -0.620730 0.221510 
